<svg xmlns="http://www.w3.org/2000/svg" viewBox="0 0 780 770" font-family="Liberation Sans, Arial, Helvetica, sans-serif">
<line x1="389.6" y1="373.0" x2="380.9" y2="123.2" stroke="#4a7a3a" stroke-width="1.8"/>
<line x1="390.4" y1="373.0" x2="399.1" y2="123.2" stroke="#4a7a3a" stroke-width="1.8"/>
<line x1="401.3" y1="380.9" x2="636.2" y2="295.4" stroke="#4a7a3a" stroke-width="1.8"/>
<line x1="401.5" y1="381.7" x2="641.9" y2="312.8" stroke="#4a7a3a" stroke-width="1.8"/>
<line x1="397.4" y1="394.5" x2="551.3" y2="591.5" stroke="#4a7a3a" stroke-width="1.8"/>
<line x1="396.7" y1="394.9" x2="536.5" y2="602.2" stroke="#4a7a3a" stroke-width="1.8"/>
<line x1="383.3" y1="394.9" x2="243.5" y2="602.2" stroke="#4a7a3a" stroke-width="1.8"/>
<line x1="382.6" y1="394.5" x2="228.7" y2="591.5" stroke="#4a7a3a" stroke-width="1.8"/>
<line x1="378.5" y1="381.7" x2="138.1" y2="312.8" stroke="#4a7a3a" stroke-width="1.8"/>
<line x1="378.7" y1="380.9" x2="143.8" y2="295.4" stroke="#4a7a3a" stroke-width="1.8"/>
<g fill="none" stroke="#2f5424" stroke-width="30">
<path d="M 402.2 105.3 A 280 280 0 0 1 637.2 253.5"/>
<path d="M 659.8 310.2 A 280 280 0 0 1 591.4 579.5"/>
<path d="M 544.5 618.5 A 280 280 0 0 1 267.3 636.7"/>
<path d="M 215.7 604.1 A 280 280 0 0 1 112.7 346.0"/>
<path d="M 127.7 286.9 A 280 280 0 0 1 341.4 109.3"/>
</g>
<polygon points="661.1,240.9 656.9,290.6 613.4,266.2" fill="#2f5424"/>
<polygon points="610.8,598.3 562.2,609.7 572.0,560.7" fill="#2f5424"/>
<polygon points="255.4,660.9 229.5,618.3 279.1,612.4" fill="#2f5424"/>
<polygon points="86.0,342.3 118.6,304.4 139.5,349.8" fill="#2f5424"/>
<polygon points="336.7,82.7 382.7,102.0 346.1,135.8" fill="#2f5424"/>
<text x="492.9" y="226.2" text-anchor="middle" font-size="16" font-weight="bold" fill="#1b1b1b">CONTEXTUALISATION</text>
<text x="492.9" y="252.7" text-anchor="middle" font-size="14" fill="#1b1b1b">Analyse efficace de vos</text>
<text x="492.9" y="271.7" text-anchor="middle" font-size="14" fill="#1b1b1b">besoins &amp; des attentes</text>
<text x="549.8" y="409.2" text-anchor="middle" font-size="16" font-weight="bold" fill="#1b1b1b">ELABORATION D'UN</text>
<text x="549.8" y="430.2" text-anchor="middle" font-size="16" font-weight="bold" fill="#1b1b1b">PROJET SUR MESURE</text>
<text x="549.8" y="456.7" text-anchor="middle" font-size="14" fill="#1b1b1b">Conception de l'offre</text>
<text x="549.8" y="475.7" text-anchor="middle" font-size="14" fill="#1b1b1b">sur mesure</text>
<text x="390.0" y="542.2" text-anchor="middle" font-size="16" font-weight="bold" fill="#1b1b1b">REALISATION DE LA</text>
<text x="390.0" y="563.2" text-anchor="middle" font-size="16" font-weight="bold" fill="#1b1b1b">FORMATION</text>
<text x="390.0" y="589.8" text-anchor="middle" font-size="14" fill="#1b1b1b">Organisation et mise en</text>
<text x="390.0" y="608.8" text-anchor="middle" font-size="14" fill="#1b1b1b">oeuvre de la formation</text>
<text x="230.2" y="419.7" text-anchor="middle" font-size="16" font-weight="bold" fill="#1b1b1b">EVALUATION</text>
<text x="230.2" y="446.2" text-anchor="middle" font-size="14" fill="#1b1b1b">Evaluation de la formation</text>
<text x="230.2" y="465.2" text-anchor="middle" font-size="14" fill="#1b1b1b">à chaud et à froid</text>
<text x="287.1" y="226.2" text-anchor="middle" font-size="16" font-weight="bold" fill="#1b1b1b">BILAN AVEC CLIENT</text>
<text x="287.1" y="252.7" text-anchor="middle" font-size="14" fill="#1b1b1b">Débrief organisé par</text>
<text x="287.1" y="271.7" text-anchor="middle" font-size="14" fill="#1b1b1b">IPSEIS avec le client</text>
</svg>
